<svg height="512" viewBox="0 0 512 512" width="512" xmlns="http://www.w3.org/2000/svg"><g id="BULINE"><circle cx="256" cy="256.05" fill="#3586cb" r="256"/></g><g id="Icons"><path d="m494.05 236.58a80.49 80.49 0 0 1 -80.49 80.49h-315.12a80.49 80.49 0 0 1 -11.82-160.07q-.3-4-.3-8a107.54 107.54 0 0 1 207-40.79 80.47 80.47 0 0 1 101.81 50.08 80.46 80.46 0 0 1 98.89 78.36z" fill="#fff"/><path d="m248.16 56.11a107.63 107.63 0 0 0 -132.86 104.52c0 2.71.1 5.38.29 8a80.49 80.49 0 0 0 -32.21 147 80.5 80.5 0 0 1 3.24-158.63c-.2-2.65-.3-5.32-.3-8a107.55 107.55 0 0 1 161.84-92.89z" fill="#bee6fc"/><path d="m266.18 155.51a19.82 19.82 0 0 0 -21.09 0c-35 22.66-70 31.39-104.94 41.65-7.9 2.31-13.2 8.67-13.2 15.82v111.39c0 58.19 37.44 111.63 97.37 139l21.3 9.73a24.43 24.43 0 0 0 20 0l21.38-9.71c59.93-27.39 97.37-80.83 97.37-139v-111.39c0-7.15-5.31-13.51-13.21-15.82-35.03-10.28-70-19.01-104.98-41.67z" fill="#e88032"/><path d="m359.33 232.57v89.76c0 46.89-30.18 89.95-78.47 112l-17.17 7.84a19.64 19.64 0 0 1 -16.12 0l-17.17-7.84c-48.29-22.07-78.46-65.13-78.46-112v-89.76c0-5.76 4.27-10.88 10.64-12.75 28.19-8.26 56.37-15.3 84.56-33.56a16 16 0 0 1 17 0c28.18 18.26 56.37 25.3 84.55 33.56 6.36 1.87 10.64 6.99 10.64 12.75z" fill="#f6d372"/><path d="m255.63 183.82v260.1a19.31 19.31 0 0 1 -8.06-1.73l-17.17-7.84c-48.29-22.07-78.46-65.13-78.46-112v-89.78c0-5.76 4.27-10.88 10.64-12.75 28.19-8.26 56.37-15.3 84.56-33.56a15.65 15.65 0 0 1 8.49-2.44z" fill="#f7bb38"/><path d="m269.56 463.39 8.7 4-12.62 5.76a24.43 24.43 0 0 1 -20 0l-21.3-9.73c-59.96-27.42-97.34-80.86-97.34-139.05v-111.37c0-7.14 5.31-13.51 13.2-15.83 35-10.25 70-19 104.93-41.64a19.84 19.84 0 0 1 21.1 0q6 3.92 12.08 7.28c-30.95 17.41-61.91 25.29-92.87 34.36-7.89 2.32-13.2 8.69-13.2 15.83v111.37c0 38.47 16.37 74.87 44.79 103a181.86 181.86 0 0 0 52.53 36.02z" fill="#d1702f"/><path d="m217 427.41c-40.4-23.44-65-62.7-65-105.08v-89.76c0-5.76 4.27-10.88 10.64-12.75l9.61-2.79v107.34c-.06 38.47 16.31 74.87 44.75 103.04z" fill="#f6d372"/><path d="m217 427.41c-40.4-23.44-65-62.7-65-105.08v-89.76c0-5.76 4.27-10.88 10.64-12.75l9.61-2.79v107.34c-.06 38.47 16.31 74.87 44.75 103.04z" fill="#dda32f"/><circle cx="340.22" cy="260.52" fill="#f9df9b" r="11.83"/><circle cx="340.22" cy="235.88" fill="#f9df9b" r="8.38"/><circle cx="251.42" cy="313.87" fill="#db1b1b" r="47.7"/><circle cx="251.42" cy="313.87" fill="#c11a1a" r="36.69"/><path d="m254.23 345.09a12.49 12.49 0 0 1 -8.23-3.09l-22.72-20a12.5 12.5 0 0 1 16.51-18.77l13.75 12.09 45-46.8a12.5 12.5 0 1 1 18 17.34l-53.3 55.41a12.5 12.5 0 0 1 -9.01 3.82z" fill="#e88032"/></g></svg>